<svg xmlns="http://www.w3.org/2000/svg" xmlns:xlink="http://www.w3.org/1999/xlink" width="500" zoomAndPan="magnify" viewBox="0 0 375 149.999998" height="200" preserveAspectRatio="xMidYMid meet" version="1.0"><defs><g/><clipPath id="0bf4eddc63"><path d="M 23.902344 37.050781 L 89.152344 37.050781 L 89.152344 99.300781 L 23.902344 99.300781 Z M 23.902344 37.050781 " clip-rule="nonzero"/></clipPath><clipPath id="f3d30f7816"><path d="M 56.636719 43.507812 C 56.15625 43.894531 55.691406 44.300781 55.234375 44.726562 C 49.964844 49.644531 47.355469 56.109375 47.414062 62.558594 C 48.820312 62.175781 50.261719 61.875 51.738281 61.671875 C 51.769531 61.660156 51.804688 61.65625 51.839844 61.652344 C 53.367188 61.445312 54.925781 61.339844 56.507812 61.339844 L 56.515625 61.339844 C 56.527344 61.339844 56.542969 61.339844 56.554688 61.34375 L 56.554688 61.339844 C 58.140625 61.339844 59.699219 61.445312 61.222656 61.652344 C 61.292969 61.660156 61.359375 61.671875 61.425781 61.683594 C 63.128906 61.929688 64.792969 62.292969 66.398438 62.773438 C 66.519531 56.484375 64.007812 50.160156 58.867188 45.363281 C 58.152344 44.699219 57.410156 44.078125 56.636719 43.507812 Z M 56.617188 43.300781 C 56.613281 43.292969 56.339844 41.695312 56.136719 41.847656 L 56.113281 41.867188 C 56.054688 41.914062 56.003906 41.96875 55.960938 42.027344 C 55.582031 42.59375 56.609375 43.296875 56.617188 43.300781 L 56.152344 43.15625 C 56.015625 43.058594 55.910156 42.921875 55.851562 42.757812 C 55.765625 42.503906 55.8125 42.234375 55.960938 42.027344 C 55.996094 41.972656 56.046875 41.917969 56.113281 41.867188 L 56.121094 41.859375 C 55.4375 42.386719 54.773438 42.949219 54.132812 43.550781 C 48.214844 49.070312 45.453125 56.429688 45.835938 63.664062 C 45.851562 63.914062 45.976562 64.140625 46.179688 64.285156 C 46.382812 64.425781 46.640625 64.464844 46.878906 64.394531 C 48.546875 63.882812 50.273438 63.5 52.050781 63.253906 C 52.082031 63.25 52.113281 63.246094 52.144531 63.238281 C 53.570312 63.046875 55.027344 62.953125 56.507812 62.953125 L 56.554688 62.953125 C 58.066406 62.953125 59.554688 63.054688 61.007812 63.25 L 61.167969 63.277344 C 63.148438 63.558594 65.066406 64.011719 66.90625 64.625 C 67.144531 64.703125 67.402344 64.667969 67.609375 64.527344 C 67.820312 64.390625 67.949219 64.160156 67.964844 63.914062 C 68.425781 56.828125 65.765625 49.59375 59.964844 44.183594 C 59.050781 43.328125 58.085938 42.546875 57.082031 41.835938 Z M 51.898438 66.054688 C 51.832031 65.890625 51.769531 65.792969 51.710938 65.839844 C 51.59375 65.9375 51.523438 66.039062 51.492188 66.144531 C 51.527344 66.097656 51.574219 66.074219 51.632812 66.089844 C 51.71875 66.113281 51.832031 66.234375 51.953125 66.507812 C 51.917969 66.351562 51.890625 66.191406 51.898438 66.054688 Z M 60.375 67.230469 C 60.40625 67.238281 60.4375 67.246094 60.46875 67.25 C 62.226562 67.492188 63.933594 67.886719 65.570312 68.429688 C 64.453125 72.421875 62.21875 76.195312 58.867188 79.324219 C 58.152344 79.988281 57.410156 80.609375 56.636719 81.179688 C 56.15625 80.789062 55.691406 80.382812 55.234375 79.957031 C 51.636719 76.601562 49.277344 72.523438 48.164062 68.21875 C 49.59375 67.785156 51.074219 67.457031 52.597656 67.25 C 52.628906 67.246094 52.660156 67.238281 52.6875 67.230469 C 53.9375 67.066406 55.214844 66.984375 56.507812 66.984375 L 56.554688 66.984375 C 57.851562 66.984375 59.125 67.066406 60.375 67.230469 Z M 56.554688 65.371094 L 56.550781 65.371094 C 56.535156 65.371094 56.523438 65.371094 56.507812 65.375 L 56.507812 65.371094 C 55.117188 65.371094 53.746094 65.464844 52.402344 65.644531 C 52.40625 65.644531 52.167969 65.660156 52.167969 65.660156 L 52.171875 65.660156 C 52.128906 65.667969 52.089844 65.679688 52.058594 65.699219 C 50.296875 65.957031 48.589844 66.367188 46.949219 66.910156 C 46.554688 67.042969 46.324219 67.449219 46.417969 67.855469 C 47.515625 72.722656 50.085938 77.359375 54.132812 81.136719 C 54.773438 81.734375 55.4375 82.296875 56.121094 82.828125 C 56.402344 83.046875 56.792969 83.054688 57.082031 82.847656 C 58.085938 82.140625 59.050781 81.355469 59.964844 80.503906 C 63.757812 76.964844 66.207031 72.648438 67.320312 68.101562 C 67.417969 67.699219 67.199219 67.289062 66.8125 67.152344 C 65.007812 66.503906 63.113281 66.019531 61.15625 65.71875 C 61.058594 65.679688 60.953125 65.65625 60.84375 65.65625 C 60.789062 65.65625 60.738281 65.652344 60.6875 65.644531 C 59.335938 65.464844 57.957031 65.371094 56.554688 65.371094 Z M 40.632812 94.140625 C 46.058594 92.585938 50.777344 89.523438 54.21875 85.46875 C 54.359375 85.300781 54.425781 85.085938 54.40625 84.871094 C 54.386719 84.65625 54.277344 84.457031 54.109375 84.320312 C 53.554688 83.871094 53.011719 83.398438 52.484375 82.90625 C 48.242188 78.945312 45.476562 74.128906 44.191406 69.046875 C 44.132812 68.808594 43.96875 68.613281 43.746094 68.507812 C 43.523438 68.40625 43.269531 68.414062 43.050781 68.519531 C 34.066406 73.007812 27.941406 81.828125 27.941406 91.992188 C 27.941406 92.769531 27.976562 93.542969 28.050781 94.308594 C 28.085938 94.683594 28.375 94.988281 28.75 95.035156 C 29.976562 95.1875 31.230469 95.269531 32.503906 95.269531 C 33.855469 95.269531 35.1875 95.179688 36.488281 95.003906 C 36.925781 94.945312 37.238281 94.539062 37.179688 94.097656 C 37.117188 93.65625 36.710938 93.347656 36.273438 93.40625 C 35.042969 93.570312 33.785156 93.65625 32.503906 93.65625 C 31.523438 93.65625 30.554688 93.605469 29.601562 93.507812 C 29.570312 93.007812 29.554688 92.5 29.554688 91.992188 C 29.554688 82.78125 34.933594 74.757812 42.894531 70.421875 C 44.347656 75.429688 47.175781 80.15625 51.382812 84.085938 C 51.734375 84.410156 52.089844 84.730469 52.449219 85.035156 C 49.261719 88.550781 45.023438 91.207031 40.1875 92.589844 C 39.761719 92.710938 39.511719 93.15625 39.632812 93.585938 C 39.757812 94.011719 40.203125 94.261719 40.632812 94.140625 Z M 82.042969 79.964844 C 79.5 75.308594 75.53125 71.441406 70.671875 68.859375 C 70.457031 68.746094 70.199219 68.734375 69.972656 68.832031 C 69.75 68.929688 69.582031 69.121094 69.515625 69.359375 C 68.21875 74.09375 65.582031 78.570312 61.617188 82.269531 C 60.800781 83.03125 59.949219 83.742188 59.066406 84.398438 C 58.886719 84.53125 58.769531 84.734375 58.746094 84.957031 C 58.71875 85.179688 58.789062 85.402344 58.933594 85.570312 C 64.007812 91.484375 71.816406 95.269531 80.558594 95.269531 C 81.832031 95.269531 83.085938 95.1875 84.3125 95.035156 C 84.6875 94.988281 84.980469 94.683594 85.015625 94.308594 C 85.085938 93.542969 85.121094 92.769531 85.121094 91.992188 C 85.121094 89.253906 84.679688 86.613281 83.851562 84.128906 C 83.714844 83.707031 83.257812 83.476562 82.835938 83.617188 C 82.414062 83.757812 82.183594 84.214844 82.324219 84.636719 C 83.09375 86.960938 83.511719 89.429688 83.511719 91.992188 C 83.511719 92.5 83.492188 93.007812 83.460938 93.507812 C 82.507812 93.605469 81.539062 93.65625 80.558594 93.65625 C 72.628906 93.65625 65.511719 90.371094 60.726562 85.160156 C 61.40625 84.621094 62.074219 84.050781 62.714844 83.449219 C 66.640625 79.789062 69.328125 75.410156 70.78125 70.765625 C 74.964844 73.183594 78.386719 76.632812 80.625 80.738281 C 80.839844 81.128906 81.328125 81.273438 81.71875 81.058594 C 82.109375 80.847656 82.253906 80.355469 82.042969 79.964844 Z M 43.6875 51.910156 C 42.113281 56 41.496094 60.339844 41.835938 64.628906 C 31.179688 69.695312 23.910156 80.070312 23.910156 91.992188 C 23.910156 93.496094 24.027344 94.976562 24.25 96.425781 C 24.4375 97.617188 25.355469 98.5625 26.542969 98.773438 C 28.472656 99.121094 30.464844 99.300781 32.503906 99.300781 C 42.121094 99.300781 50.730469 95.269531 56.53125 88.9375 C 62.332031 95.269531 70.941406 99.300781 80.558594 99.300781 C 82.597656 99.300781 84.589844 99.121094 86.523438 98.773438 C 87.707031 98.5625 88.628906 97.617188 88.8125 96.425781 C 89.039062 94.976562 89.152344 93.496094 89.152344 91.992188 C 89.152344 80.34375 82.210938 70.167969 71.949219 64.980469 C 72.75 56.488281 69.675781 47.730469 62.714844 41.234375 C 61.265625 39.882812 59.707031 38.6875 58.070312 37.648438 C 57.109375 37.042969 55.878906 37.070312 54.945312 37.71875 C 53.703125 38.589844 52.511719 39.546875 51.382812 40.601562 C 49.078125 42.753906 47.1875 45.144531 45.707031 47.695312 C 45.484375 48.078125 45.617188 48.574219 46 48.796875 C 46.386719 49.019531 46.878906 48.886719 47.101562 48.503906 C 48.503906 46.089844 50.296875 43.820312 52.484375 41.78125 C 53.554688 40.78125 54.6875 39.867188 55.871094 39.042969 C 56.269531 38.765625 56.796875 38.753906 57.207031 39.011719 C 58.761719 39.996094 60.238281 41.128906 61.617188 42.414062 C 68.335938 48.683594 71.230469 57.179688 70.289062 65.363281 C 70.25 65.703125 70.429688 66.03125 70.738281 66.183594 C 80.722656 71.015625 87.542969 80.773438 87.542969 91.992188 C 87.542969 93.414062 87.429688 94.8125 87.21875 96.179688 C 87.140625 96.691406 86.746094 97.09375 86.238281 97.1875 C 84.398438 97.515625 82.5 97.6875 80.558594 97.6875 C 71.09375 97.6875 62.652344 93.585938 57.144531 87.195312 C 56.988281 87.019531 56.765625 86.917969 56.53125 86.917969 C 56.296875 86.917969 56.074219 87.019531 55.921875 87.195312 C 50.414062 93.585938 41.96875 97.6875 32.503906 97.6875 C 30.5625 97.6875 28.664062 97.515625 26.828125 97.1875 C 26.316406 97.09375 25.925781 96.691406 25.84375 96.179688 C 25.632812 94.8125 25.523438 93.414062 25.523438 91.992188 C 25.523438 80.515625 32.660156 70.566406 43.023438 65.855469 C 43.335938 65.710938 43.523438 65.386719 43.492188 65.042969 C 43.070312 60.816406 43.640625 56.523438 45.191406 52.488281 C 45.351562 52.074219 45.144531 51.605469 44.730469 51.445312 C 44.316406 51.285156 43.847656 51.496094 43.6875 51.910156 Z M 43.6875 51.910156 " clip-rule="evenodd"/></clipPath><linearGradient x1="-0.00000295885" gradientTransform="matrix(0.201531, 0, 0, 0.201587, 23.911235, 37.212586)" y1="154" x2="323.73199" gradientUnits="userSpaceOnUse" y2="154" id="a5414a1669"><stop stop-opacity="1" stop-color="rgb(80.39856%, 90.99884%, 83.099365%)" offset="0"/><stop stop-opacity="1" stop-color="rgb(80.54657%, 90.943909%, 82.847595%)" offset="0.00390625"/><stop stop-opacity="1" stop-color="rgb(80.69458%, 90.888977%, 82.595825%)" offset="0.0078125"/><stop stop-opacity="1" stop-color="rgb(80.84259%, 90.834045%, 82.344055%)" offset="0.0117188"/><stop stop-opacity="1" stop-color="rgb(80.990601%, 90.779114%, 82.092285%)" offset="0.015625"/><stop stop-opacity="1" stop-color="rgb(81.138611%, 90.724182%, 81.840515%)" offset="0.0195312"/><stop stop-opacity="1" stop-color="rgb(81.288147%, 90.66925%, 81.588745%)" offset="0.0234375"/><stop stop-opacity="1" stop-color="rgb(81.436157%, 90.612793%, 81.336975%)" offset="0.0273438"/><stop stop-opacity="1" stop-color="rgb(81.584167%, 90.557861%, 81.086731%)" offset="0.03125"/><stop stop-opacity="1" stop-color="rgb(81.732178%, 90.50293%, 80.834961%)" offset="0.0351563"/><stop stop-opacity="1" stop-color="rgb(81.880188%, 90.447998%, 80.583191%)" offset="0.0390625"/><stop stop-opacity="1" stop-color="rgb(82.028198%, 90.393066%, 80.331421%)" offset="0.0429688"/><stop stop-opacity="1" stop-color="rgb(82.176208%, 90.338135%, 80.079651%)" offset="0.046875"/><stop stop-opacity="1" stop-color="rgb(82.324219%, 90.283203%, 79.827881%)" offset="0.0507813"/><stop stop-opacity="1" stop-color="rgb(82.472229%, 90.228271%, 79.576111%)" offset="0.0546875"/><stop stop-opacity="1" stop-color="rgb(82.620239%, 90.17334%, 79.324341%)" offset="0.0585938"/><stop stop-opacity="1" stop-color="rgb(82.76825%, 90.118408%, 79.072571%)" offset="0.0625"/><stop stop-opacity="1" stop-color="rgb(82.91626%, 90.061951%, 78.820801%)" offset="0.0664063"/><stop stop-opacity="1" stop-color="rgb(83.06427%, 90.007019%, 78.569031%)" offset="0.0703125"/><stop stop-opacity="1" stop-color="rgb(83.21228%, 89.952087%, 78.317261%)" offset="0.0742188"/><stop stop-opacity="1" stop-color="rgb(83.360291%, 89.897156%, 78.067017%)" offset="0.078125"/><stop stop-opacity="1" stop-color="rgb(83.508301%, 89.842224%, 77.815247%)" offset="0.0820313"/><stop stop-opacity="1" stop-color="rgb(83.656311%, 89.787292%, 77.563477%)" offset="0.0859375"/><stop stop-opacity="1" stop-color="rgb(83.804321%, 89.732361%, 77.311707%)" offset="0.0898438"/><stop stop-opacity="1" stop-color="rgb(83.952332%, 89.677429%, 77.059937%)" offset="0.09375"/><stop stop-opacity="1" stop-color="rgb(84.100342%, 89.620972%, 76.808167%)" offset="0.0976563"/><stop stop-opacity="1" stop-color="rgb(84.248352%, 89.56604%, 76.556396%)" offset="0.101563"/><stop stop-opacity="1" stop-color="rgb(84.396362%, 89.511108%, 76.304626%)" offset="0.105469"/><stop stop-opacity="1" stop-color="rgb(84.544373%, 89.456177%, 76.052856%)" offset="0.109375"/><stop stop-opacity="1" stop-color="rgb(84.692383%, 89.401245%, 75.801086%)" offset="0.113281"/><stop stop-opacity="1" stop-color="rgb(84.840393%, 89.346313%, 75.549316%)" offset="0.117188"/><stop stop-opacity="1" stop-color="rgb(84.988403%, 89.291382%, 75.297546%)" offset="0.121094"/><stop stop-opacity="1" stop-color="rgb(85.136414%, 89.23645%, 75.047302%)" offset="0.125"/><stop stop-opacity="1" stop-color="rgb(85.284424%, 89.181519%, 74.795532%)" offset="0.128906"/><stop stop-opacity="1" stop-color="rgb(85.432434%, 89.126587%, 74.543762%)" offset="0.132813"/><stop stop-opacity="1" stop-color="rgb(85.580444%, 89.070129%, 74.291992%)" offset="0.136719"/><stop stop-opacity="1" stop-color="rgb(85.728455%, 89.015198%, 74.040222%)" offset="0.140625"/><stop stop-opacity="1" stop-color="rgb(85.876465%, 88.960266%, 73.788452%)" offset="0.144531"/><stop stop-opacity="1" stop-color="rgb(86.024475%, 88.905334%, 73.536682%)" offset="0.148438"/><stop stop-opacity="1" stop-color="rgb(86.172485%, 88.850403%, 73.284912%)" offset="0.152344"/><stop stop-opacity="1" stop-color="rgb(86.320496%, 88.795471%, 73.033142%)" offset="0.15625"/><stop stop-opacity="1" stop-color="rgb(86.468506%, 88.74054%, 72.781372%)" offset="0.160156"/><stop stop-opacity="1" stop-color="rgb(86.616516%, 88.685608%, 72.529602%)" offset="0.164063"/><stop stop-opacity="1" stop-color="rgb(86.764526%, 88.62915%, 72.277832%)" offset="0.167969"/><stop stop-opacity="1" stop-color="rgb(86.912537%, 88.574219%, 72.027588%)" offset="0.171875"/><stop stop-opacity="1" stop-color="rgb(87.060547%, 88.519287%, 71.775818%)" offset="0.175781"/><stop stop-opacity="1" stop-color="rgb(87.208557%, 88.464355%, 71.524048%)" offset="0.179688"/><stop stop-opacity="1" stop-color="rgb(87.356567%, 88.409424%, 71.272278%)" offset="0.183594"/><stop stop-opacity="1" stop-color="rgb(87.504578%, 88.354492%, 71.020508%)" offset="0.1875"/><stop stop-opacity="1" stop-color="rgb(87.652588%, 88.299561%, 70.768738%)" offset="0.191406"/><stop stop-opacity="1" stop-color="rgb(87.800598%, 88.244629%, 70.516968%)" offset="0.195313"/><stop stop-opacity="1" stop-color="rgb(87.948608%, 88.189697%, 70.265198%)" offset="0.199219"/><stop stop-opacity="1" stop-color="rgb(88.096619%, 88.134766%, 70.013428%)" offset="0.203125"/><stop stop-opacity="1" stop-color="rgb(88.244629%, 88.078308%, 69.761658%)" offset="0.207031"/><stop stop-opacity="1" stop-color="rgb(88.392639%, 88.023376%, 69.509888%)" offset="0.210938"/><stop stop-opacity="1" stop-color="rgb(88.540649%, 87.968445%, 69.258118%)" offset="0.214844"/><stop stop-opacity="1" stop-color="rgb(88.68866%, 87.913513%, 69.007874%)" offset="0.21875"/><stop stop-opacity="1" stop-color="rgb(88.83667%, 87.858582%, 68.756104%)" offset="0.222656"/><stop stop-opacity="1" stop-color="rgb(88.98468%, 87.80365%, 68.504333%)" offset="0.226563"/><stop stop-opacity="1" stop-color="rgb(89.13269%, 87.748718%, 68.252563%)" offset="0.230469"/><stop stop-opacity="1" stop-color="rgb(89.280701%, 87.693787%, 68.000793%)" offset="0.234375"/><stop stop-opacity="1" stop-color="rgb(89.428711%, 87.637329%, 67.749023%)" offset="0.238281"/><stop stop-opacity="1" stop-color="rgb(89.576721%, 87.582397%, 67.497253%)" offset="0.242188"/><stop stop-opacity="1" stop-color="rgb(89.724731%, 87.527466%, 67.245483%)" offset="0.246094"/><stop stop-opacity="1" stop-color="rgb(89.872742%, 87.472534%, 66.993713%)" offset="0.25"/><stop stop-opacity="1" stop-color="rgb(90.020752%, 87.417603%, 66.741943%)" offset="0.253906"/><stop stop-opacity="1" stop-color="rgb(90.168762%, 87.362671%, 66.490173%)" offset="0.257812"/><stop stop-opacity="1" stop-color="rgb(90.316772%, 87.307739%, 66.238403%)" offset="0.261719"/><stop stop-opacity="1" stop-color="rgb(90.464783%, 87.252808%, 65.986633%)" offset="0.265625"/><stop stop-opacity="1" stop-color="rgb(90.612793%, 87.197876%, 65.734863%)" offset="0.269531"/><stop stop-opacity="1" stop-color="rgb(90.760803%, 87.142944%, 65.484619%)" offset="0.273438"/><stop stop-opacity="1" stop-color="rgb(90.908813%, 87.086487%, 65.232849%)" offset="0.277344"/><stop stop-opacity="1" stop-color="rgb(91.056824%, 87.031555%, 64.981079%)" offset="0.28125"/><stop stop-opacity="1" stop-color="rgb(91.204834%, 86.976624%, 64.729309%)" offset="0.285156"/><stop stop-opacity="1" stop-color="rgb(91.352844%, 86.921692%, 64.477539%)" offset="0.289062"/><stop stop-opacity="1" stop-color="rgb(91.500854%, 86.86676%, 64.225769%)" offset="0.292969"/><stop stop-opacity="1" stop-color="rgb(91.648865%, 86.811829%, 63.973999%)" offset="0.296875"/><stop stop-opacity="1" stop-color="rgb(91.796875%, 86.756897%, 63.722229%)" offset="0.300781"/><stop stop-opacity="1" stop-color="rgb(91.944885%, 86.701965%, 63.470459%)" offset="0.304688"/><stop stop-opacity="1" stop-color="rgb(92.092896%, 86.647034%, 63.218689%)" offset="0.308594"/><stop stop-opacity="1" stop-color="rgb(92.240906%, 86.592102%, 62.966919%)" offset="0.3125"/><stop stop-opacity="1" stop-color="rgb(92.388916%, 86.535645%, 62.715149%)" offset="0.316406"/><stop stop-opacity="1" stop-color="rgb(92.536926%, 86.480713%, 62.464905%)" offset="0.320312"/><stop stop-opacity="1" stop-color="rgb(92.684937%, 86.425781%, 62.213135%)" offset="0.324219"/><stop stop-opacity="1" stop-color="rgb(92.832947%, 86.37085%, 61.961365%)" offset="0.328125"/><stop stop-opacity="1" stop-color="rgb(92.980957%, 86.315918%, 61.709595%)" offset="0.332031"/><stop stop-opacity="1" stop-color="rgb(93.128967%, 86.260986%, 61.457825%)" offset="0.335938"/><stop stop-opacity="1" stop-color="rgb(93.276978%, 86.206055%, 61.206055%)" offset="0.339844"/><stop stop-opacity="1" stop-color="rgb(93.424988%, 86.151123%, 60.954285%)" offset="0.34375"/><stop stop-opacity="1" stop-color="rgb(93.572998%, 86.094666%, 60.702515%)" offset="0.347656"/><stop stop-opacity="1" stop-color="rgb(93.721008%, 86.039734%, 60.450745%)" offset="0.351562"/><stop stop-opacity="1" stop-color="rgb(93.869019%, 85.984802%, 60.198975%)" offset="0.355469"/><stop stop-opacity="1" stop-color="rgb(94.017029%, 85.929871%, 59.947205%)" offset="0.359375"/><stop stop-opacity="1" stop-color="rgb(94.165039%, 85.874939%, 59.695435%)" offset="0.363281"/><stop stop-opacity="1" stop-color="rgb(94.313049%, 85.820007%, 59.44519%)" offset="0.367188"/><stop stop-opacity="1" stop-color="rgb(94.46106%, 85.765076%, 59.19342%)" offset="0.371094"/><stop stop-opacity="1" stop-color="rgb(94.60907%, 85.710144%, 58.94165%)" offset="0.375"/><stop stop-opacity="1" stop-color="rgb(94.75708%, 85.655212%, 58.68988%)" offset="0.378906"/><stop stop-opacity="1" stop-color="rgb(94.90509%, 85.600281%, 58.43811%)" offset="0.382812"/><stop stop-opacity="1" stop-color="rgb(95.053101%, 85.543823%, 58.18634%)" offset="0.386719"/><stop stop-opacity="1" stop-color="rgb(95.201111%, 85.488892%, 57.93457%)" offset="0.390625"/><stop stop-opacity="1" stop-color="rgb(95.349121%, 85.43396%, 57.6828%)" offset="0.394531"/><stop stop-opacity="1" stop-color="rgb(95.498657%, 85.379028%, 57.43103%)" offset="0.398438"/><stop stop-opacity="1" stop-color="rgb(95.646667%, 85.324097%, 57.17926%)" offset="0.402344"/><stop stop-opacity="1" stop-color="rgb(95.794678%, 85.269165%, 56.92749%)" offset="0.40625"/><stop stop-opacity="1" stop-color="rgb(95.942688%, 85.214233%, 56.67572%)" offset="0.410156"/><stop stop-opacity="1" stop-color="rgb(96.090698%, 85.159302%, 56.425476%)" offset="0.414062"/><stop stop-opacity="1" stop-color="rgb(96.238708%, 85.102844%, 56.173706%)" offset="0.417969"/><stop stop-opacity="1" stop-color="rgb(96.386719%, 85.047913%, 55.921936%)" offset="0.421875"/><stop stop-opacity="1" stop-color="rgb(96.534729%, 84.992981%, 55.670166%)" offset="0.425781"/><stop stop-opacity="1" stop-color="rgb(96.682739%, 84.938049%, 55.418396%)" offset="0.429688"/><stop stop-opacity="1" stop-color="rgb(96.83075%, 84.883118%, 55.166626%)" offset="0.433594"/><stop stop-opacity="1" stop-color="rgb(96.97876%, 84.828186%, 54.914856%)" offset="0.4375"/><stop stop-opacity="1" stop-color="rgb(97.12677%, 84.773254%, 54.663086%)" offset="0.441406"/><stop stop-opacity="1" stop-color="rgb(97.27478%, 84.718323%, 54.411316%)" offset="0.445312"/><stop stop-opacity="1" stop-color="rgb(97.422791%, 84.663391%, 54.159546%)" offset="0.449219"/><stop stop-opacity="1" stop-color="rgb(97.570801%, 84.608459%, 53.907776%)" offset="0.453125"/><stop stop-opacity="1" stop-color="rgb(97.718811%, 84.552002%, 53.656006%)" offset="0.457031"/><stop stop-opacity="1" stop-color="rgb(97.866821%, 84.49707%, 53.405762%)" offset="0.460938"/><stop stop-opacity="1" stop-color="rgb(98.014832%, 84.442139%, 53.153992%)" offset="0.464844"/><stop stop-opacity="1" stop-color="rgb(98.162842%, 84.387207%, 52.902222%)" offset="0.46875"/><stop stop-opacity="1" stop-color="rgb(98.275757%, 84.288025%, 52.696228%)" offset="0.472656"/><stop stop-opacity="1" stop-color="rgb(98.390198%, 84.190369%, 52.490234%)" offset="0.476562"/><stop stop-opacity="1" stop-color="rgb(98.36731%, 83.91571%, 52.467346%)" offset="0.480469"/><stop stop-opacity="1" stop-color="rgb(98.344421%, 83.642578%, 52.444458%)" offset="0.484375"/><stop stop-opacity="1" stop-color="rgb(98.320007%, 83.36792%, 52.420044%)" offset="0.488281"/><stop stop-opacity="1" stop-color="rgb(98.297119%, 83.094788%, 52.397156%)" offset="0.492188"/><stop stop-opacity="1" stop-color="rgb(98.274231%, 82.820129%, 52.374268%)" offset="0.496094"/><stop stop-opacity="1" stop-color="rgb(98.251343%, 82.546997%, 52.351379%)" offset="0.5"/><stop stop-opacity="1" stop-color="rgb(98.228455%, 82.272339%, 52.328491%)" offset="0.503906"/><stop stop-opacity="1" stop-color="rgb(98.205566%, 81.999207%, 52.305603%)" offset="0.507813"/><stop stop-opacity="1" stop-color="rgb(98.182678%, 81.724548%, 52.282715%)" offset="0.511719"/><stop stop-opacity="1" stop-color="rgb(98.15979%, 81.451416%, 52.259827%)" offset="0.515625"/><stop stop-opacity="1" stop-color="rgb(98.135376%, 81.176758%, 52.235413%)" offset="0.519531"/><stop stop-opacity="1" stop-color="rgb(98.112488%, 80.903625%, 52.212524%)" offset="0.523438"/><stop stop-opacity="1" stop-color="rgb(98.0896%, 80.628967%, 52.189636%)" offset="0.527344"/><stop stop-opacity="1" stop-color="rgb(98.066711%, 80.355835%, 52.166748%)" offset="0.53125"/><stop stop-opacity="1" stop-color="rgb(98.043823%, 80.081177%, 52.14386%)" offset="0.535156"/><stop stop-opacity="1" stop-color="rgb(98.020935%, 79.808044%, 52.120972%)" offset="0.539063"/><stop stop-opacity="1" stop-color="rgb(97.998047%, 79.534912%, 52.098083%)" offset="0.542969"/><stop stop-opacity="1" stop-color="rgb(97.975159%, 79.26178%, 52.075195%)" offset="0.546875"/><stop stop-opacity="1" stop-color="rgb(97.952271%, 78.987122%, 52.052307%)" offset="0.550781"/><stop stop-opacity="1" stop-color="rgb(97.929382%, 78.713989%, 52.029419%)" offset="0.554688"/><stop stop-opacity="1" stop-color="rgb(97.904968%, 78.439331%, 52.005005%)" offset="0.558594"/><stop stop-opacity="1" stop-color="rgb(97.88208%, 78.166199%, 51.982117%)" offset="0.5625"/><stop stop-opacity="1" stop-color="rgb(97.859192%, 77.891541%, 51.959229%)" offset="0.566406"/><stop stop-opacity="1" stop-color="rgb(97.836304%, 77.618408%, 51.93634%)" offset="0.570313"/><stop stop-opacity="1" stop-color="rgb(97.813416%, 77.34375%, 51.913452%)" offset="0.574219"/><stop stop-opacity="1" stop-color="rgb(97.790527%, 77.070618%, 51.890564%)" offset="0.578125"/><stop stop-opacity="1" stop-color="rgb(97.767639%, 76.795959%, 51.867676%)" offset="0.582031"/><stop stop-opacity="1" stop-color="rgb(97.744751%, 76.522827%, 51.844788%)" offset="0.585938"/><stop stop-opacity="1" stop-color="rgb(97.720337%, 76.248169%, 51.820374%)" offset="0.589844"/><stop stop-opacity="1" stop-color="rgb(97.697449%, 75.975037%, 51.797485%)" offset="0.59375"/><stop stop-opacity="1" stop-color="rgb(97.674561%, 75.700378%, 51.774597%)" offset="0.597656"/><stop stop-opacity="1" stop-color="rgb(97.651672%, 75.427246%, 51.751709%)" offset="0.601563"/><stop stop-opacity="1" stop-color="rgb(97.628784%, 75.152588%, 51.728821%)" offset="0.605469"/><stop stop-opacity="1" stop-color="rgb(97.605896%, 74.879456%, 51.705933%)" offset="0.609375"/><stop stop-opacity="1" stop-color="rgb(97.583008%, 74.606323%, 51.683044%)" offset="0.613281"/><stop stop-opacity="1" stop-color="rgb(97.56012%, 74.333191%, 51.660156%)" offset="0.617188"/><stop stop-opacity="1" stop-color="rgb(97.535706%, 74.058533%, 51.635742%)" offset="0.621094"/><stop stop-opacity="1" stop-color="rgb(97.512817%, 73.7854%, 51.612854%)" offset="0.625"/><stop stop-opacity="1" stop-color="rgb(97.489929%, 73.510742%, 51.589966%)" offset="0.628906"/><stop stop-opacity="1" stop-color="rgb(97.467041%, 73.23761%, 51.567078%)" offset="0.632813"/><stop stop-opacity="1" stop-color="rgb(97.444153%, 72.962952%, 51.544189%)" offset="0.636719"/><stop stop-opacity="1" stop-color="rgb(97.421265%, 72.689819%, 51.521301%)" offset="0.640625"/><stop stop-opacity="1" stop-color="rgb(97.398376%, 72.415161%, 51.498413%)" offset="0.644531"/><stop stop-opacity="1" stop-color="rgb(97.375488%, 72.142029%, 51.475525%)" offset="0.648438"/><stop stop-opacity="1" stop-color="rgb(97.3526%, 71.867371%, 51.452637%)" offset="0.652344"/><stop stop-opacity="1" stop-color="rgb(97.329712%, 71.594238%, 51.429749%)" offset="0.65625"/><stop stop-opacity="1" stop-color="rgb(97.305298%, 71.31958%, 51.405334%)" offset="0.660156"/><stop stop-opacity="1" stop-color="rgb(97.28241%, 71.046448%, 51.382446%)" offset="0.664063"/><stop stop-opacity="1" stop-color="rgb(97.259521%, 70.77179%, 51.359558%)" offset="0.667969"/><stop stop-opacity="1" stop-color="rgb(97.236633%, 70.498657%, 51.33667%)" offset="0.671875"/><stop stop-opacity="1" stop-color="rgb(97.213745%, 70.223999%, 51.313782%)" offset="0.675781"/><stop stop-opacity="1" stop-color="rgb(97.190857%, 69.950867%, 51.290894%)" offset="0.679688"/><stop stop-opacity="1" stop-color="rgb(97.167969%, 69.677734%, 51.268005%)" offset="0.683594"/><stop stop-opacity="1" stop-color="rgb(97.145081%, 69.404602%, 51.245117%)" offset="0.6875"/><stop stop-opacity="1" stop-color="rgb(97.120667%, 69.129944%, 51.220703%)" offset="0.691406"/><stop stop-opacity="1" stop-color="rgb(97.097778%, 68.856812%, 51.197815%)" offset="0.695313"/><stop stop-opacity="1" stop-color="rgb(97.07489%, 68.582153%, 51.174927%)" offset="0.699219"/><stop stop-opacity="1" stop-color="rgb(97.052002%, 68.309021%, 51.152039%)" offset="0.703125"/><stop stop-opacity="1" stop-color="rgb(97.029114%, 68.034363%, 51.12915%)" offset="0.707031"/><stop stop-opacity="1" stop-color="rgb(97.006226%, 67.76123%, 51.106262%)" offset="0.710938"/><stop stop-opacity="1" stop-color="rgb(96.983337%, 67.486572%, 51.083374%)" offset="0.714844"/><stop stop-opacity="1" stop-color="rgb(96.960449%, 67.21344%, 51.060486%)" offset="0.71875"/><stop stop-opacity="1" stop-color="rgb(96.936035%, 66.938782%, 51.036072%)" offset="0.722656"/><stop stop-opacity="1" stop-color="rgb(96.913147%, 66.665649%, 51.013184%)" offset="0.726563"/><stop stop-opacity="1" stop-color="rgb(96.890259%, 66.390991%, 50.990295%)" offset="0.730469"/><stop stop-opacity="1" stop-color="rgb(96.867371%, 66.117859%, 50.967407%)" offset="0.734375"/><stop stop-opacity="1" stop-color="rgb(96.844482%, 65.843201%, 50.944519%)" offset="0.738281"/><stop stop-opacity="1" stop-color="rgb(96.821594%, 65.570068%, 50.921631%)" offset="0.742188"/><stop stop-opacity="1" stop-color="rgb(96.798706%, 65.296936%, 50.898743%)" offset="0.746094"/><stop stop-opacity="1" stop-color="rgb(96.775818%, 65.023804%, 50.875854%)" offset="0.75"/><stop stop-opacity="1" stop-color="rgb(96.75293%, 64.749146%, 50.85144%)" offset="0.753906"/><stop stop-opacity="1" stop-color="rgb(96.730042%, 64.476013%, 50.828552%)" offset="0.757813"/><stop stop-opacity="1" stop-color="rgb(96.705627%, 64.201355%, 50.805664%)" offset="0.761719"/><stop stop-opacity="1" stop-color="rgb(96.682739%, 63.928223%, 50.782776%)" offset="0.765625"/><stop stop-opacity="1" stop-color="rgb(96.659851%, 63.653564%, 50.759888%)" offset="0.769531"/><stop stop-opacity="1" stop-color="rgb(96.636963%, 63.380432%, 50.737%)" offset="0.773438"/><stop stop-opacity="1" stop-color="rgb(96.614075%, 63.105774%, 50.714111%)" offset="0.777344"/><stop stop-opacity="1" stop-color="rgb(96.591187%, 62.832642%, 50.691223%)" offset="0.78125"/><stop stop-opacity="1" stop-color="rgb(96.568298%, 62.557983%, 50.668335%)" offset="0.785156"/><stop stop-opacity="1" stop-color="rgb(96.54541%, 62.284851%, 50.645447%)" offset="0.789063"/><stop stop-opacity="1" stop-color="rgb(96.520996%, 62.010193%, 50.621033%)" offset="0.792969"/><stop stop-opacity="1" stop-color="rgb(96.498108%, 61.737061%, 50.598145%)" offset="0.796875"/><stop stop-opacity="1" stop-color="rgb(96.47522%, 61.462402%, 50.575256%)" offset="0.800781"/><stop stop-opacity="1" stop-color="rgb(96.452332%, 61.18927%, 50.552368%)" offset="0.804688"/><stop stop-opacity="1" stop-color="rgb(96.429443%, 60.914612%, 50.52948%)" offset="0.808594"/><stop stop-opacity="1" stop-color="rgb(96.406555%, 60.641479%, 50.506592%)" offset="0.8125"/><stop stop-opacity="1" stop-color="rgb(96.383667%, 60.368347%, 50.483704%)" offset="0.816406"/><stop stop-opacity="1" stop-color="rgb(96.360779%, 60.095215%, 50.460815%)" offset="0.820313"/><stop stop-opacity="1" stop-color="rgb(96.336365%, 59.820557%, 50.436401%)" offset="0.824219"/><stop stop-opacity="1" stop-color="rgb(96.313477%, 59.547424%, 50.413513%)" offset="0.828125"/><stop stop-opacity="1" stop-color="rgb(96.290588%, 59.272766%, 50.390625%)" offset="0.832031"/><stop stop-opacity="1" stop-color="rgb(96.2677%, 58.999634%, 50.367737%)" offset="0.835938"/><stop stop-opacity="1" stop-color="rgb(96.244812%, 58.724976%, 50.344849%)" offset="0.839844"/><stop stop-opacity="1" stop-color="rgb(96.221924%, 58.451843%, 50.32196%)" offset="0.84375"/><stop stop-opacity="1" stop-color="rgb(96.199036%, 58.177185%, 50.299072%)" offset="0.847656"/><stop stop-opacity="1" stop-color="rgb(96.176147%, 57.904053%, 50.276184%)" offset="0.851563"/><stop stop-opacity="1" stop-color="rgb(96.151733%, 57.629395%, 50.25177%)" offset="0.855469"/><stop stop-opacity="1" stop-color="rgb(96.128845%, 57.356262%, 50.228882%)" offset="0.859375"/><stop stop-opacity="1" stop-color="rgb(96.105957%, 57.081604%, 50.205994%)" offset="0.863281"/><stop stop-opacity="1" stop-color="rgb(96.083069%, 56.808472%, 50.183105%)" offset="0.867188"/><stop stop-opacity="1" stop-color="rgb(96.060181%, 56.533813%, 50.160217%)" offset="0.871094"/><stop stop-opacity="1" stop-color="rgb(96.037292%, 56.260681%, 50.137329%)" offset="0.875"/><stop stop-opacity="1" stop-color="rgb(96.014404%, 55.986023%, 50.114441%)" offset="0.878906"/><stop stop-opacity="1" stop-color="rgb(95.991516%, 55.712891%, 50.091553%)" offset="0.882813"/><stop stop-opacity="1" stop-color="rgb(95.968628%, 55.439758%, 50.068665%)" offset="0.886719"/><stop stop-opacity="1" stop-color="rgb(95.94574%, 55.166626%, 50.045776%)" offset="0.890625"/><stop stop-opacity="1" stop-color="rgb(95.921326%, 54.891968%, 50.021362%)" offset="0.894531"/><stop stop-opacity="1" stop-color="rgb(95.898438%, 54.618835%, 49.998474%)" offset="0.898438"/><stop stop-opacity="1" stop-color="rgb(95.875549%, 54.344177%, 49.975586%)" offset="0.902344"/><stop stop-opacity="1" stop-color="rgb(95.852661%, 54.071045%, 49.952698%)" offset="0.90625"/><stop stop-opacity="1" stop-color="rgb(95.829773%, 53.796387%, 49.92981%)" offset="0.910156"/><stop stop-opacity="1" stop-color="rgb(95.806885%, 53.523254%, 49.906921%)" offset="0.914063"/><stop stop-opacity="1" stop-color="rgb(95.783997%, 53.248596%, 49.884033%)" offset="0.917969"/><stop stop-opacity="1" stop-color="rgb(95.761108%, 52.975464%, 49.861145%)" offset="0.921875"/><stop stop-opacity="1" stop-color="rgb(95.736694%, 52.700806%, 49.836731%)" offset="0.925781"/><stop stop-opacity="1" stop-color="rgb(95.713806%, 52.427673%, 49.813843%)" offset="0.929688"/><stop stop-opacity="1" stop-color="rgb(95.690918%, 52.153015%, 49.790955%)" offset="0.933594"/><stop stop-opacity="1" stop-color="rgb(95.66803%, 51.879883%, 49.768066%)" offset="0.9375"/><stop stop-opacity="1" stop-color="rgb(95.645142%, 51.605225%, 49.745178%)" offset="0.941406"/><stop stop-opacity="1" stop-color="rgb(95.622253%, 51.332092%, 49.72229%)" offset="0.945313"/><stop stop-opacity="1" stop-color="rgb(95.599365%, 51.057434%, 49.699402%)" offset="0.949219"/><stop stop-opacity="1" stop-color="rgb(95.576477%, 50.784302%, 49.676514%)" offset="0.953125"/><stop stop-opacity="1" stop-color="rgb(95.552063%, 50.511169%, 49.6521%)" offset="0.957031"/><stop stop-opacity="1" stop-color="rgb(95.529175%, 50.238037%, 49.629211%)" offset="0.960938"/><stop stop-opacity="1" stop-color="rgb(95.506287%, 49.963379%, 49.606323%)" offset="0.964844"/><stop stop-opacity="1" stop-color="rgb(95.483398%, 49.690247%, 49.583435%)" offset="0.96875"/><stop stop-opacity="1" stop-color="rgb(95.46051%, 49.415588%, 49.560547%)" offset="0.972656"/><stop stop-opacity="1" stop-color="rgb(95.437622%, 49.142456%, 49.537659%)" offset="0.976563"/><stop stop-opacity="1" stop-color="rgb(95.414734%, 48.867798%, 49.514771%)" offset="0.980469"/><stop stop-opacity="1" stop-color="rgb(95.391846%, 48.594666%, 49.491882%)" offset="0.984375"/><stop stop-opacity="1" stop-color="rgb(95.368958%, 48.320007%, 49.468994%)" offset="0.988281"/><stop stop-opacity="1" stop-color="rgb(95.346069%, 48.046875%, 49.446106%)" offset="0.992188"/><stop stop-opacity="1" stop-color="rgb(95.321655%, 47.772217%, 49.421692%)" offset="0.996094"/><stop stop-opacity="1" stop-color="rgb(95.298767%, 47.499084%, 49.398804%)" offset="1"/></linearGradient></defs><g clip-path="url(#0bf4eddc63)"><g clip-path="url(#f3d30f7816)"><path fill="url(#a5414a1669)" d="M 23.910156 37.050781 L 23.910156 99.300781 L 89.152344 99.300781 L 89.152344 37.050781 Z M 23.910156 37.050781 " fill-rule="nonzero"/></g></g><g fill="#e34853" fill-opacity="1"><g transform="translate(108.247515, 87.368287)"><g><path d="M 49.90625 -42.515625 C 48.582031 -40.878906 47.710938 -39.382812 47.296875 -38.03125 C 46.878906 -36.675781 46.671875 -34.832031 46.671875 -32.5 L 46.671875 -12.234375 C 46.671875 -9.671875 46.800781 -7.457031 47.0625 -5.59375 C 47.320312 -3.738281 47.75 -1.875 48.34375 0 L 38.8125 0 C 39.4375 -1.84375 39.867188 -3.679688 40.109375 -5.515625 C 40.359375 -7.359375 40.484375 -9.597656 40.484375 -12.234375 L 40.484375 -31.3125 L 25.734375 -13.078125 L 11.09375 -31.15625 L 11.09375 -12.234375 C 11.09375 -9.671875 11.222656 -7.457031 11.484375 -5.59375 C 11.742188 -3.738281 12.171875 -1.875 12.765625 0 L 3.234375 0 C 3.859375 -1.84375 4.289062 -3.679688 4.53125 -5.515625 C 4.769531 -7.359375 4.890625 -9.597656 4.890625 -12.234375 L 4.890625 -38.078125 C 3.578125 -39.742188 2.191406 -41.222656 0.734375 -42.515625 L 0.734375 -42.671875 L 10.15625 -42.671875 C 10.601562 -41.585938 11.125 -40.578125 11.71875 -39.640625 C 12.3125 -38.703125 13.179688 -37.539062 14.328125 -36.15625 L 25.78125 -21.984375 L 38.546875 -37.8125 C 39.941406 -39.519531 41.003906 -41.140625 41.734375 -42.671875 L 49.90625 -42.671875 Z M 49.90625 -42.515625 "/></g></g></g><g fill="#e34853" fill-opacity="1"><g transform="translate(159.810806, 87.368287)"><g><path d="M 16 -42.671875 C 15.582031 -40.898438 15.273438 -38.988281 15.078125 -36.9375 C 14.890625 -34.882812 14.796875 -32.070312 14.796875 -28.5 L 14.796875 -10 C 14.796875 -3.363281 13.734375 1.503906 11.609375 4.609375 C 9.492188 7.710938 6.300781 9.265625 2.03125 9.265625 C 0.957031 9.265625 -0.0664062 9.109375 -1.046875 8.796875 L -1.046875 8.59375 C 1.035156 7.65625 2.765625 6.507812 4.140625 5.15625 C 5.515625 3.800781 6.597656 1.910156 7.390625 -0.515625 C 8.191406 -2.953125 8.59375 -6.078125 8.59375 -9.890625 L 8.59375 -37.765625 C 7.894531 -37.835938 7.148438 -37.875 6.359375 -37.875 C 3.890625 -37.875 1.628906 -37.644531 -0.421875 -37.1875 L 1.25 -42.671875 Z M 16 -42.671875 "/></g></g></g><g fill="#e34853" fill-opacity="1"><g transform="translate(179.029849, 87.368287)"><g><path d="M 24.640625 -43.1875 C 28.703125 -43.1875 32.4375 -42.28125 35.84375 -40.46875 C 39.25 -38.664062 41.945312 -36.128906 43.9375 -32.859375 C 45.9375 -29.597656 46.9375 -25.851562 46.9375 -21.625 C 46.9375 -17.382812 45.945312 -13.578125 43.96875 -10.203125 C 41.988281 -6.835938 39.28125 -4.207031 35.84375 -2.3125 C 32.40625 -0.425781 28.601562 0.515625 24.4375 0.515625 C 20.09375 0.515625 16.242188 -0.5 12.890625 -2.53125 C 9.535156 -4.5625 6.957031 -7.25 5.15625 -10.59375 C 3.351562 -13.945312 2.453125 -17.519531 2.453125 -21.3125 C 2.453125 -25.269531 3.429688 -28.921875 5.390625 -32.265625 C 7.347656 -35.617188 10.019531 -38.273438 13.40625 -40.234375 C 16.800781 -42.203125 20.546875 -43.1875 24.640625 -43.1875 Z M 23.390625 -38.65625 C 20.859375 -38.65625 18.515625 -37.992188 16.359375 -36.671875 C 14.203125 -35.347656 12.488281 -33.476562 11.21875 -31.0625 C 9.957031 -28.65625 9.328125 -25.875 9.328125 -22.71875 C 9.328125 -19.414062 10.007812 -16.332031 11.375 -13.46875 C 12.75 -10.601562 14.675781 -8.3125 17.15625 -6.59375 C 19.644531 -4.875 22.488281 -4.015625 25.6875 -4.015625 C 28.5 -4.015625 31 -4.722656 33.1875 -6.140625 C 35.375 -7.566406 37.070312 -9.503906 38.28125 -11.953125 C 39.5 -14.398438 40.109375 -17.101562 40.109375 -20.0625 C 40.109375 -23.351562 39.359375 -26.429688 37.859375 -29.296875 C 36.367188 -32.160156 34.347656 -34.4375 31.796875 -36.125 C 29.242188 -37.8125 26.441406 -38.65625 23.390625 -38.65625 Z M 23.390625 -38.65625 "/></g></g></g><g fill="#e34853" fill-opacity="1"><g transform="translate(228.457682, 87.368287)"><g><path d="M 3.234375 0 C 3.816406 -1.875 4.238281 -3.738281 4.5 -5.59375 C 4.757812 -7.457031 4.890625 -9.671875 4.890625 -12.234375 L 4.890625 -30.421875 C 4.890625 -32.992188 4.757812 -35.207031 4.5 -37.0625 C 4.238281 -38.925781 3.816406 -40.796875 3.234375 -42.671875 L 12.765625 -42.671875 C 12.171875 -40.796875 11.742188 -38.925781 11.484375 -37.0625 C 11.222656 -35.207031 11.09375 -32.992188 11.09375 -30.421875 L 11.09375 -4.484375 C 13.738281 -4.648438 16.648438 -5.085938 19.828125 -5.796875 C 23.003906 -6.515625 25.492188 -7.273438 27.296875 -8.078125 L 27.40625 -7.96875 L 24.125 0 Z M 3.234375 0 "/></g></g></g><g fill="#e34853" fill-opacity="1"><g transform="translate(255.489341, 87.368287)"><g><path d="M 41.828125 -13.90625 C 41.828125 -10.8125 41.914062 -8.195312 42.09375 -6.0625 C 42.269531 -3.925781 42.566406 -1.90625 42.984375 0 L 35.109375 0 C 34.585938 -1.53125 33.425781 -3.421875 31.625 -5.671875 L 12.140625 -30.375 L 12.140625 -13.90625 C 12.140625 -10.78125 12.257812 -8.207031 12.5 -6.1875 C 12.738281 -4.175781 13.175781 -2.113281 13.8125 0 L 4.265625 0 C 4.890625 -2.15625 5.320312 -4.238281 5.5625 -6.25 C 5.8125 -8.257812 5.9375 -10.8125 5.9375 -13.90625 L 5.9375 -36.875 C 5.03125 -38.019531 4.1875 -39 3.40625 -39.8125 C 2.625 -40.632812 1.695312 -41.515625 0.625 -42.453125 L 0.625 -42.671875 L 11.140625 -42.671875 C 11.597656 -41.585938 12.15625 -40.523438 12.8125 -39.484375 C 13.476562 -38.441406 14.519531 -37.050781 15.9375 -35.3125 L 35.625 -10.359375 L 35.625 -28.75 C 35.625 -31.84375 35.503906 -34.394531 35.265625 -36.40625 C 35.023438 -38.425781 34.59375 -40.515625 33.96875 -42.671875 L 43.5 -42.671875 C 42.875 -40.546875 42.4375 -38.472656 42.1875 -36.453125 C 41.945312 -34.441406 41.828125 -31.875 41.828125 -28.75 Z M 41.828125 -13.90625 "/></g></g></g><g fill="#e34853" fill-opacity="1"><g transform="translate(302.208801, 87.368287)"><g><path d="M 3.234375 0 C 3.816406 -1.875 4.238281 -3.738281 4.5 -5.59375 C 4.757812 -7.457031 4.890625 -9.671875 4.890625 -12.234375 L 4.890625 -30.421875 C 4.890625 -32.992188 4.757812 -35.207031 4.5 -37.0625 C 4.238281 -38.925781 3.816406 -40.796875 3.234375 -42.671875 L 12.765625 -42.671875 C 12.171875 -40.796875 11.742188 -38.925781 11.484375 -37.0625 C 11.222656 -35.207031 11.09375 -32.992188 11.09375 -30.421875 L 11.09375 -12.234375 C 11.09375 -9.671875 11.222656 -7.457031 11.484375 -5.59375 C 11.742188 -3.738281 12.171875 -1.875 12.765625 0 Z M 3.234375 0 "/></g></g></g><g fill="#e34853" fill-opacity="1"><g transform="translate(318.198632, 87.368287)"><g><path d="M 19.75 -18.90625 C 21.582031 -15.851562 23.539062 -12.945312 25.625 -10.1875 C 27.707031 -7.425781 30.382812 -4.097656 33.65625 -0.203125 L 33.65625 0 L 28.59375 0 C 27.03125 -0.59375 25 -2.296875 22.5 -5.109375 C 19.101562 -8.921875 15.300781 -13.75 11.09375 -19.59375 L 11.09375 -12.234375 C 11.09375 -9.671875 11.222656 -7.457031 11.484375 -5.59375 C 11.742188 -3.738281 12.171875 -1.875 12.765625 0 L 3.234375 0 C 3.816406 -1.875 4.238281 -3.738281 4.5 -5.59375 C 4.757812 -7.457031 4.890625 -9.671875 4.890625 -12.234375 L 4.890625 -30.421875 C 4.890625 -32.992188 4.757812 -35.207031 4.5 -37.0625 C 4.238281 -38.925781 3.816406 -40.796875 3.234375 -42.671875 L 12.078125 -42.671875 C 15.585938 -42.671875 18.578125 -42.125 21.046875 -41.03125 C 23.515625 -39.9375 25.363281 -38.472656 26.59375 -36.640625 C 27.820312 -34.816406 28.4375 -32.78125 28.4375 -30.53125 C 28.4375 -25.457031 25.539062 -21.582031 19.75 -18.90625 Z M 11.09375 -20.265625 C 14.632812 -20.992188 17.328125 -22.179688 19.171875 -23.828125 C 21.015625 -25.484375 21.9375 -27.457031 21.9375 -29.75 C 21.9375 -31.582031 21.457031 -33.203125 20.5 -34.609375 C 19.539062 -36.015625 18.238281 -37.097656 16.59375 -37.859375 C 14.945312 -38.628906 13.113281 -39.015625 11.09375 -39.015625 Z M 11.09375 -20.265625 "/></g></g></g></svg>