<svg xmlns="http://www.w3.org/2000/svg" xmlns:xlink="http://www.w3.org/1999/xlink" width="500" zoomAndPan="magnify" viewBox="0 0 375 374.999991" height="500" preserveAspectRatio="xMidYMid meet" version="1.0"><defs><clipPath id="5b78a5457c"><path d="M 69.546875 70 L 305.796875 70 L 305.796875 294.871094 L 69.546875 294.871094 Z M 69.546875 70 " clip-rule="nonzero"/></clipPath><clipPath id="e2eb48db73"><path d="M 188.066406 93.203125 C 186.328125 94.609375 184.632812 96.078125 182.980469 97.617188 C 163.90625 115.386719 154.460938 138.757812 154.675781 162.066406 C 159.757812 160.675781 164.984375 159.597656 170.328125 158.855469 C 170.445312 158.824219 170.570312 158.800781 170.695312 158.78125 C 176.222656 158.039062 181.863281 157.65625 187.601562 157.65625 L 187.617188 157.65625 C 187.671875 157.65625 187.722656 157.660156 187.769531 157.675781 L 187.769531 157.65625 C 193.503906 157.65625 199.148438 158.039062 204.671875 158.78125 C 204.921875 158.816406 205.167969 158.859375 205.402344 158.910156 C 211.574219 159.785156 217.589844 161.109375 223.414062 162.84375 C 223.847656 140.109375 214.746094 117.246094 196.136719 99.910156 C 193.554688 97.507812 190.859375 95.269531 188.066406 93.203125 Z M 187.988281 92.460938 C 187.980469 92.425781 186.984375 86.660156 186.246094 87.207031 L 186.164062 87.273438 C 185.949219 87.441406 185.765625 87.636719 185.613281 87.851562 C 184.242188 89.902344 187.960938 92.445312 187.988281 92.460938 L 186.304688 91.929688 C 185.8125 91.582031 185.429688 91.085938 185.226562 90.488281 C 184.914062 89.582031 185.074219 88.605469 185.613281 87.851562 C 185.746094 87.652344 185.925781 87.460938 186.164062 87.273438 L 186.203125 87.242188 C 183.722656 89.15625 181.320312 91.195312 179 93.355469 C 157.574219 113.316406 147.574219 139.910156 148.960938 166.066406 C 149.007812 166.960938 149.46875 167.785156 150.203125 168.300781 C 150.941406 168.816406 151.875 168.960938 152.734375 168.699219 C 158.769531 166.847656 165.027344 165.460938 171.460938 164.585938 C 171.578125 164.570312 171.6875 164.546875 171.800781 164.519531 C 176.96875 163.835938 182.238281 163.484375 187.601562 163.484375 L 187.769531 163.484375 C 193.242188 163.484375 198.621094 163.851562 203.894531 164.558594 L 204.476562 164.664062 C 211.640625 165.675781 218.585938 167.320312 225.246094 169.53125 C 226.105469 169.816406 227.046875 169.691406 227.796875 169.183594 C 228.546875 168.679688 229.019531 167.859375 229.082031 166.957031 C 230.75 141.347656 221.109375 115.203125 200.121094 95.648438 C 196.800781 92.558594 193.308594 89.730469 189.671875 87.167969 Z M 170.902344 174.695312 C 170.667969 174.109375 170.433594 173.757812 170.230469 173.925781 C 169.800781 174.277344 169.550781 174.648438 169.4375 175.023438 C 169.570312 174.855469 169.738281 174.773438 169.9375 174.828125 C 170.257812 174.914062 170.660156 175.347656 171.109375 176.339844 C 170.972656 175.769531 170.882812 175.195312 170.902344 174.695312 Z M 201.597656 178.957031 C 201.707031 178.984375 201.820312 179.007812 201.933594 179.023438 C 208.308594 179.890625 214.484375 181.328125 220.402344 183.28125 C 216.359375 197.714844 208.265625 211.359375 196.136719 222.660156 C 193.554688 225.066406 190.859375 227.300781 188.066406 229.371094 C 186.328125 227.964844 184.632812 226.492188 182.980469 224.953125 C 169.957031 212.820312 161.417969 198.078125 157.382812 182.515625 C 162.5625 180.949219 167.925781 179.773438 173.433594 179.023438 C 173.546875 179.007812 173.660156 178.984375 173.769531 178.957031 C 178.292969 178.363281 182.910156 178.058594 187.601562 178.058594 L 187.769531 178.058594 C 192.460938 178.058594 197.074219 178.363281 201.597656 178.957031 Z M 187.769531 172.230469 L 187.75 172.226562 C 187.699219 172.226562 187.648438 172.234375 187.601562 172.246094 L 187.601562 172.226562 C 182.558594 172.226562 177.597656 172.5625 172.738281 173.210938 C 172.738281 173.210938 171.890625 173.269531 171.890625 173.269531 L 171.890625 173.28125 C 171.738281 173.304688 171.605469 173.347656 171.492188 173.410156 C 165.113281 174.347656 158.929688 175.828125 152.984375 177.796875 C 151.5625 178.269531 150.726562 179.742188 151.058594 181.203125 C 155.035156 198.804688 164.34375 215.5625 179 229.214844 C 181.320312 231.378906 183.722656 233.414062 186.203125 235.328125 C 187.214844 236.113281 188.625 236.144531 189.671875 235.40625 C 193.308594 232.839844 196.800781 230.011719 200.121094 226.921875 C 213.84375 214.136719 222.714844 198.53125 226.746094 182.101562 C 227.101562 180.652344 226.304688 179.167969 224.898438 178.664062 C 218.367188 176.320312 211.511719 174.570312 204.421875 173.492188 C 204.074219 173.347656 203.691406 173.265625 203.289062 173.261719 C 203.101562 173.261719 202.910156 173.25 202.726562 173.226562 C 197.835938 172.566406 192.84375 172.226562 187.769531 172.226562 Z M 130.113281 276.210938 C 149.761719 270.601562 166.84375 259.523438 179.300781 244.871094 C 179.808594 244.273438 180.054688 243.496094 179.984375 242.714844 C 179.910156 241.933594 179.523438 241.210938 178.914062 240.71875 C 176.902344 239.09375 174.9375 237.390625 173.027344 235.609375 C 157.664062 221.300781 147.652344 203.878906 143.003906 185.511719 C 142.785156 184.65625 142.191406 183.941406 141.390625 183.574219 C 140.585938 183.207031 139.660156 183.222656 138.871094 183.617188 C 106.335938 199.835938 84.167969 231.714844 84.167969 268.445312 C 84.167969 271.269531 84.300781 274.0625 84.554688 276.824219 C 84.683594 278.183594 85.738281 279.273438 87.097656 279.445312 C 91.542969 280.007812 96.078125 280.296875 100.6875 280.296875 C 105.582031 280.296875 110.398438 279.972656 115.105469 279.339844 C 116.703125 279.125 117.824219 277.65625 117.609375 276.0625 C 117.394531 274.46875 115.925781 273.347656 114.328125 273.5625 C 109.875 274.160156 105.320312 274.46875 100.6875 274.46875 C 97.136719 274.46875 93.632812 274.285156 90.183594 273.933594 C 90.066406 272.117188 90.003906 270.289062 90.003906 268.445312 C 90.003906 235.152344 109.484375 206.160156 138.308594 190.484375 C 143.566406 208.582031 153.808594 225.679688 169.042969 239.871094 C 170.308594 241.050781 171.597656 242.199219 172.90625 243.3125 C 161.367188 256.015625 146.011719 265.609375 128.507812 270.605469 C 126.960938 271.050781 126.0625 272.664062 126.503906 274.210938 C 126.945312 275.757812 128.5625 276.652344 130.113281 276.210938 Z M 280.042969 224.984375 C 270.84375 208.152344 256.46875 194.171875 238.878906 184.839844 C 238.09375 184.425781 237.164062 184.386719 236.351562 184.738281 C 235.539062 185.089844 234.929688 185.789062 234.695312 186.644531 C 229.992188 203.75 220.457031 219.933594 206.09375 233.316406 C 203.136719 236.070312 200.050781 238.632812 196.855469 241.003906 C 196.207031 241.484375 195.785156 242.214844 195.695312 243.019531 C 195.605469 243.820312 195.855469 244.625 196.382812 245.238281 C 214.746094 266.621094 243.015625 280.296875 274.679688 280.296875 C 279.289062 280.296875 283.828125 280.007812 288.269531 279.445312 C 289.628906 279.273438 290.683594 278.183594 290.8125 276.824219 C 291.070312 274.0625 291.199219 271.269531 291.199219 268.445312 C 291.199219 258.550781 289.589844 249.011719 286.605469 240.03125 C 286.097656 238.507812 284.445312 237.679688 282.914062 238.1875 C 281.386719 238.691406 280.558594 240.34375 281.066406 241.871094 C 283.859375 250.269531 285.363281 259.191406 285.363281 268.445312 C 285.363281 270.289062 285.304688 272.117188 285.183594 273.933594 C 281.734375 274.285156 278.230469 274.46875 274.679688 274.46875 C 245.972656 274.46875 220.203125 262.585938 202.863281 243.75 C 205.335938 241.804688 207.742188 239.75 210.074219 237.578125 C 224.277344 224.347656 234.007812 208.515625 239.28125 191.726562 C 254.417969 200.46875 266.8125 212.941406 274.917969 227.777344 C 275.691406 229.1875 277.464844 229.707031 278.878906 228.9375 C 280.292969 228.167969 280.816406 226.394531 280.042969 224.984375 Z M 141.179688 123.574219 C 135.476562 138.359375 133.242188 154.050781 134.472656 169.546875 C 95.898438 187.859375 69.574219 225.367188 69.574219 268.445312 C 69.574219 273.886719 69.996094 279.238281 70.808594 284.484375 C 71.472656 288.789062 74.804688 292.195312 79.101562 292.964844 C 86.089844 294.214844 93.308594 294.871094 100.6875 294.871094 C 135.507812 294.871094 166.683594 280.292969 187.683594 257.40625 C 208.683594 280.292969 239.859375 294.871094 274.679688 294.871094 C 282.058594 294.871094 289.277344 294.214844 296.265625 292.964844 C 300.5625 292.195312 303.894531 288.789062 304.5625 284.484375 C 305.375 279.238281 305.792969 273.886719 305.792969 268.445312 C 305.792969 226.34375 280.652344 189.566406 243.503906 170.824219 C 246.410156 140.125 235.277344 108.472656 210.074219 84.992188 C 204.820312 80.097656 199.179688 75.777344 193.25 72.03125 C 189.773438 69.835938 185.316406 69.9375 181.945312 72.289062 C 177.441406 75.425781 173.128906 78.894531 169.042969 82.699219 C 160.695312 90.476562 153.84375 99.128906 148.496094 108.335938 C 147.6875 109.726562 148.160156 111.511719 149.554688 112.320312 C 150.945312 113.128906 152.734375 112.652344 153.542969 111.261719 C 158.617188 102.535156 165.109375 94.335938 173.027344 86.960938 C 176.910156 83.347656 181.003906 80.050781 185.285156 77.066406 C 186.730469 76.0625 188.640625 76.019531 190.128906 76.957031 C 195.757812 80.511719 201.105469 84.613281 206.09375 89.257812 C 230.417969 111.914062 240.894531 142.625 237.492188 172.207031 C 237.351562 173.4375 238.003906 174.621094 239.117188 175.164062 C 275.265625 192.632812 299.957031 227.90625 299.957031 268.445312 C 299.957031 273.585938 299.558594 278.640625 298.792969 283.59375 C 298.507812 285.4375 297.078125 286.898438 295.238281 287.226562 C 288.582031 288.417969 281.707031 289.042969 274.679688 289.042969 C 240.410156 289.042969 209.839844 274.214844 189.894531 251.117188 C 189.339844 250.472656 188.53125 250.105469 187.683594 250.105469 C 186.835938 250.105469 186.027344 250.472656 185.472656 251.117188 C 165.527344 274.214844 134.957031 289.042969 100.6875 289.042969 C 93.660156 289.042969 86.785156 288.417969 80.128906 287.226562 C 78.289062 286.898438 76.863281 285.4375 76.574219 283.59375 C 75.808594 278.640625 75.414062 273.585938 75.414062 268.445312 C 75.414062 226.972656 101.253906 191.011719 138.769531 173.980469 C 139.90625 173.464844 140.589844 172.28125 140.464844 171.039062 C 138.949219 155.769531 141.003906 140.253906 146.628906 125.667969 C 147.207031 124.167969 146.457031 122.480469 144.953125 121.902344 C 143.449219 121.324219 141.757812 122.074219 141.179688 123.574219 Z M 141.179688 123.574219 " clip-rule="evenodd"/></clipPath><linearGradient x1="-0.00000369884" gradientTransform="matrix(0.729675, 0, 0, 0.728627, 69.574786, 70.452998)" y1="154" x2="323.731983" gradientUnits="userSpaceOnUse" y2="154" id="1432a811c7"><stop stop-opacity="1" stop-color="rgb(80.39856%, 90.99884%, 83.099365%)" offset="0"/><stop stop-opacity="1" stop-color="rgb(80.54657%, 90.943909%, 82.847595%)" offset="0.00390625"/><stop stop-opacity="1" stop-color="rgb(80.69458%, 90.888977%, 82.595825%)" offset="0.0078125"/><stop stop-opacity="1" stop-color="rgb(80.84259%, 90.834045%, 82.344055%)" offset="0.0117187"/><stop stop-opacity="1" stop-color="rgb(80.990601%, 90.779114%, 82.092285%)" offset="0.015625"/><stop stop-opacity="1" stop-color="rgb(81.138611%, 90.724182%, 81.840515%)" offset="0.0195312"/><stop stop-opacity="1" stop-color="rgb(81.288147%, 90.66925%, 81.588745%)" offset="0.0234375"/><stop stop-opacity="1" stop-color="rgb(81.436157%, 90.612793%, 81.336975%)" offset="0.0273438"/><stop stop-opacity="1" stop-color="rgb(81.584167%, 90.557861%, 81.086731%)" offset="0.03125"/><stop stop-opacity="1" stop-color="rgb(81.732178%, 90.50293%, 80.834961%)" offset="0.0351562"/><stop stop-opacity="1" stop-color="rgb(81.880188%, 90.447998%, 80.583191%)" offset="0.0390625"/><stop stop-opacity="1" stop-color="rgb(82.028198%, 90.393066%, 80.331421%)" offset="0.0429688"/><stop stop-opacity="1" stop-color="rgb(82.176208%, 90.338135%, 80.079651%)" offset="0.046875"/><stop stop-opacity="1" stop-color="rgb(82.324219%, 90.283203%, 79.827881%)" offset="0.0507812"/><stop stop-opacity="1" stop-color="rgb(82.472229%, 90.228271%, 79.576111%)" offset="0.0546875"/><stop stop-opacity="1" stop-color="rgb(82.620239%, 90.17334%, 79.324341%)" offset="0.0585937"/><stop stop-opacity="1" stop-color="rgb(82.76825%, 90.118408%, 79.072571%)" offset="0.0625"/><stop stop-opacity="1" stop-color="rgb(82.91626%, 90.061951%, 78.820801%)" offset="0.0664062"/><stop stop-opacity="1" stop-color="rgb(83.06427%, 90.007019%, 78.569031%)" offset="0.0703125"/><stop stop-opacity="1" stop-color="rgb(83.21228%, 89.952087%, 78.317261%)" offset="0.0742188"/><stop stop-opacity="1" stop-color="rgb(83.360291%, 89.897156%, 78.067017%)" offset="0.078125"/><stop stop-opacity="1" stop-color="rgb(83.508301%, 89.842224%, 77.815247%)" offset="0.0820313"/><stop stop-opacity="1" stop-color="rgb(83.656311%, 89.787292%, 77.563477%)" offset="0.0859375"/><stop stop-opacity="1" stop-color="rgb(83.804321%, 89.732361%, 77.311707%)" offset="0.0898438"/><stop stop-opacity="1" stop-color="rgb(83.952332%, 89.677429%, 77.059937%)" offset="0.09375"/><stop stop-opacity="1" stop-color="rgb(84.100342%, 89.620972%, 76.808167%)" offset="0.0976562"/><stop stop-opacity="1" stop-color="rgb(84.248352%, 89.56604%, 76.556396%)" offset="0.101562"/><stop stop-opacity="1" stop-color="rgb(84.396362%, 89.511108%, 76.304626%)" offset="0.105469"/><stop stop-opacity="1" stop-color="rgb(84.544373%, 89.456177%, 76.052856%)" offset="0.109375"/><stop stop-opacity="1" stop-color="rgb(84.692383%, 89.401245%, 75.801086%)" offset="0.113281"/><stop stop-opacity="1" stop-color="rgb(84.840393%, 89.346313%, 75.549316%)" offset="0.117188"/><stop stop-opacity="1" stop-color="rgb(84.988403%, 89.291382%, 75.297546%)" offset="0.121094"/><stop stop-opacity="1" stop-color="rgb(85.136414%, 89.23645%, 75.047302%)" offset="0.125"/><stop stop-opacity="1" stop-color="rgb(85.284424%, 89.181519%, 74.795532%)" offset="0.128906"/><stop stop-opacity="1" stop-color="rgb(85.432434%, 89.126587%, 74.543762%)" offset="0.132812"/><stop stop-opacity="1" stop-color="rgb(85.580444%, 89.070129%, 74.291992%)" offset="0.136719"/><stop stop-opacity="1" stop-color="rgb(85.728455%, 89.015198%, 74.040222%)" offset="0.140625"/><stop stop-opacity="1" stop-color="rgb(85.876465%, 88.960266%, 73.788452%)" offset="0.144531"/><stop stop-opacity="1" stop-color="rgb(86.024475%, 88.905334%, 73.536682%)" offset="0.148438"/><stop stop-opacity="1" stop-color="rgb(86.172485%, 88.850403%, 73.284912%)" offset="0.152344"/><stop stop-opacity="1" stop-color="rgb(86.320496%, 88.795471%, 73.033142%)" offset="0.15625"/><stop stop-opacity="1" stop-color="rgb(86.468506%, 88.74054%, 72.781372%)" offset="0.160156"/><stop stop-opacity="1" stop-color="rgb(86.616516%, 88.685608%, 72.529602%)" offset="0.164062"/><stop stop-opacity="1" stop-color="rgb(86.764526%, 88.62915%, 72.277832%)" offset="0.167969"/><stop stop-opacity="1" stop-color="rgb(86.912537%, 88.574219%, 72.027588%)" offset="0.171875"/><stop stop-opacity="1" stop-color="rgb(87.060547%, 88.519287%, 71.775818%)" offset="0.175781"/><stop stop-opacity="1" stop-color="rgb(87.208557%, 88.464355%, 71.524048%)" offset="0.179687"/><stop stop-opacity="1" stop-color="rgb(87.356567%, 88.409424%, 71.272278%)" offset="0.183594"/><stop stop-opacity="1" stop-color="rgb(87.504578%, 88.354492%, 71.020508%)" offset="0.1875"/><stop stop-opacity="1" stop-color="rgb(87.652588%, 88.299561%, 70.768738%)" offset="0.191406"/><stop stop-opacity="1" stop-color="rgb(87.800598%, 88.244629%, 70.516968%)" offset="0.195312"/><stop stop-opacity="1" stop-color="rgb(87.948608%, 88.189697%, 70.265198%)" offset="0.199219"/><stop stop-opacity="1" stop-color="rgb(88.096619%, 88.134766%, 70.013428%)" offset="0.203125"/><stop stop-opacity="1" stop-color="rgb(88.244629%, 88.078308%, 69.761658%)" offset="0.207031"/><stop stop-opacity="1" stop-color="rgb(88.392639%, 88.023376%, 69.509888%)" offset="0.210937"/><stop stop-opacity="1" stop-color="rgb(88.540649%, 87.968445%, 69.258118%)" offset="0.214844"/><stop stop-opacity="1" stop-color="rgb(88.68866%, 87.913513%, 69.007874%)" offset="0.21875"/><stop stop-opacity="1" stop-color="rgb(88.83667%, 87.858582%, 68.756104%)" offset="0.222656"/><stop stop-opacity="1" stop-color="rgb(88.98468%, 87.80365%, 68.504333%)" offset="0.226562"/><stop stop-opacity="1" stop-color="rgb(89.13269%, 87.748718%, 68.252563%)" offset="0.230469"/><stop stop-opacity="1" stop-color="rgb(89.280701%, 87.693787%, 68.000793%)" offset="0.234375"/><stop stop-opacity="1" stop-color="rgb(89.428711%, 87.637329%, 67.749023%)" offset="0.238281"/><stop stop-opacity="1" stop-color="rgb(89.576721%, 87.582397%, 67.497253%)" offset="0.242188"/><stop stop-opacity="1" stop-color="rgb(89.724731%, 87.527466%, 67.245483%)" offset="0.246094"/><stop stop-opacity="1" stop-color="rgb(89.872742%, 87.472534%, 66.993713%)" offset="0.25"/><stop stop-opacity="1" stop-color="rgb(90.020752%, 87.417603%, 66.741943%)" offset="0.253906"/><stop stop-opacity="1" stop-color="rgb(90.168762%, 87.362671%, 66.490173%)" offset="0.257812"/><stop stop-opacity="1" stop-color="rgb(90.316772%, 87.307739%, 66.238403%)" offset="0.261719"/><stop stop-opacity="1" stop-color="rgb(90.464783%, 87.252808%, 65.988159%)" offset="0.265625"/><stop stop-opacity="1" stop-color="rgb(90.612793%, 87.197876%, 65.736389%)" offset="0.269531"/><stop stop-opacity="1" stop-color="rgb(90.760803%, 87.142944%, 65.484619%)" offset="0.273438"/><stop stop-opacity="1" stop-color="rgb(90.908813%, 87.086487%, 65.232849%)" offset="0.277344"/><stop stop-opacity="1" stop-color="rgb(91.056824%, 87.031555%, 64.981079%)" offset="0.28125"/><stop stop-opacity="1" stop-color="rgb(91.204834%, 86.976624%, 64.729309%)" offset="0.285156"/><stop stop-opacity="1" stop-color="rgb(91.352844%, 86.921692%, 64.477539%)" offset="0.289062"/><stop stop-opacity="1" stop-color="rgb(91.500854%, 86.86676%, 64.225769%)" offset="0.292969"/><stop stop-opacity="1" stop-color="rgb(91.648865%, 86.811829%, 63.973999%)" offset="0.296875"/><stop stop-opacity="1" stop-color="rgb(91.796875%, 86.756897%, 63.722229%)" offset="0.300781"/><stop stop-opacity="1" stop-color="rgb(91.944885%, 86.701965%, 63.470459%)" offset="0.304688"/><stop stop-opacity="1" stop-color="rgb(92.092896%, 86.647034%, 63.218689%)" offset="0.308594"/><stop stop-opacity="1" stop-color="rgb(92.240906%, 86.592102%, 62.966919%)" offset="0.3125"/><stop stop-opacity="1" stop-color="rgb(92.388916%, 86.535645%, 62.715149%)" offset="0.316406"/><stop stop-opacity="1" stop-color="rgb(92.536926%, 86.480713%, 62.464905%)" offset="0.320312"/><stop stop-opacity="1" stop-color="rgb(92.684937%, 86.425781%, 62.213135%)" offset="0.324219"/><stop stop-opacity="1" stop-color="rgb(92.832947%, 86.37085%, 61.961365%)" offset="0.328125"/><stop stop-opacity="1" stop-color="rgb(92.980957%, 86.315918%, 61.709595%)" offset="0.332031"/><stop stop-opacity="1" stop-color="rgb(93.128967%, 86.260986%, 61.457825%)" offset="0.335938"/><stop stop-opacity="1" stop-color="rgb(93.276978%, 86.206055%, 61.206055%)" offset="0.339844"/><stop stop-opacity="1" stop-color="rgb(93.424988%, 86.151123%, 60.954285%)" offset="0.34375"/><stop stop-opacity="1" stop-color="rgb(93.572998%, 86.094666%, 60.702515%)" offset="0.347656"/><stop stop-opacity="1" stop-color="rgb(93.721008%, 86.039734%, 60.450745%)" offset="0.351562"/><stop stop-opacity="1" stop-color="rgb(93.869019%, 85.984802%, 60.198975%)" offset="0.355469"/><stop stop-opacity="1" stop-color="rgb(94.017029%, 85.929871%, 59.947205%)" offset="0.359375"/><stop stop-opacity="1" stop-color="rgb(94.165039%, 85.874939%, 59.695435%)" offset="0.363281"/><stop stop-opacity="1" stop-color="rgb(94.313049%, 85.820007%, 59.44519%)" offset="0.367188"/><stop stop-opacity="1" stop-color="rgb(94.46106%, 85.765076%, 59.19342%)" offset="0.371094"/><stop stop-opacity="1" stop-color="rgb(94.60907%, 85.710144%, 58.94165%)" offset="0.375"/><stop stop-opacity="1" stop-color="rgb(94.75708%, 85.655212%, 58.68988%)" offset="0.378906"/><stop stop-opacity="1" stop-color="rgb(94.90509%, 85.600281%, 58.43811%)" offset="0.382812"/><stop stop-opacity="1" stop-color="rgb(95.053101%, 85.543823%, 58.18634%)" offset="0.386719"/><stop stop-opacity="1" stop-color="rgb(95.201111%, 85.488892%, 57.93457%)" offset="0.390625"/><stop stop-opacity="1" stop-color="rgb(95.349121%, 85.43396%, 57.6828%)" offset="0.394531"/><stop stop-opacity="1" stop-color="rgb(95.498657%, 85.379028%, 57.43103%)" offset="0.398437"/><stop stop-opacity="1" stop-color="rgb(95.646667%, 85.324097%, 57.17926%)" offset="0.402344"/><stop stop-opacity="1" stop-color="rgb(95.794678%, 85.269165%, 56.92749%)" offset="0.40625"/><stop stop-opacity="1" stop-color="rgb(95.942688%, 85.214233%, 56.67572%)" offset="0.410156"/><stop stop-opacity="1" stop-color="rgb(96.090698%, 85.159302%, 56.425476%)" offset="0.414062"/><stop stop-opacity="1" stop-color="rgb(96.238708%, 85.102844%, 56.173706%)" offset="0.417969"/><stop stop-opacity="1" stop-color="rgb(96.386719%, 85.047913%, 55.921936%)" offset="0.421875"/><stop stop-opacity="1" stop-color="rgb(96.534729%, 84.992981%, 55.670166%)" offset="0.425781"/><stop stop-opacity="1" stop-color="rgb(96.682739%, 84.938049%, 55.418396%)" offset="0.429688"/><stop stop-opacity="1" stop-color="rgb(96.83075%, 84.883118%, 55.166626%)" offset="0.433594"/><stop stop-opacity="1" stop-color="rgb(96.97876%, 84.828186%, 54.914856%)" offset="0.4375"/><stop stop-opacity="1" stop-color="rgb(97.12677%, 84.773254%, 54.663086%)" offset="0.441406"/><stop stop-opacity="1" stop-color="rgb(97.27478%, 84.718323%, 54.411316%)" offset="0.445312"/><stop stop-opacity="1" stop-color="rgb(97.422791%, 84.663391%, 54.159546%)" offset="0.449219"/><stop stop-opacity="1" stop-color="rgb(97.570801%, 84.608459%, 53.907776%)" offset="0.453125"/><stop stop-opacity="1" stop-color="rgb(97.718811%, 84.552002%, 53.656006%)" offset="0.457031"/><stop stop-opacity="1" stop-color="rgb(97.866821%, 84.49707%, 53.405762%)" offset="0.460938"/><stop stop-opacity="1" stop-color="rgb(98.014832%, 84.442139%, 53.153992%)" offset="0.464844"/><stop stop-opacity="1" stop-color="rgb(98.162842%, 84.387207%, 52.902222%)" offset="0.46875"/><stop stop-opacity="1" stop-color="rgb(98.275757%, 84.288025%, 52.696228%)" offset="0.472656"/><stop stop-opacity="1" stop-color="rgb(98.390198%, 84.190369%, 52.490234%)" offset="0.476562"/><stop stop-opacity="1" stop-color="rgb(98.36731%, 83.91571%, 52.467346%)" offset="0.480469"/><stop stop-opacity="1" stop-color="rgb(98.344421%, 83.642578%, 52.444458%)" offset="0.484375"/><stop stop-opacity="1" stop-color="rgb(98.320007%, 83.36792%, 52.420044%)" offset="0.488281"/><stop stop-opacity="1" stop-color="rgb(98.297119%, 83.094788%, 52.397156%)" offset="0.492187"/><stop stop-opacity="1" stop-color="rgb(98.274231%, 82.820129%, 52.374268%)" offset="0.496094"/><stop stop-opacity="1" stop-color="rgb(98.251343%, 82.546997%, 52.351379%)" offset="0.5"/><stop stop-opacity="1" stop-color="rgb(98.228455%, 82.272339%, 52.328491%)" offset="0.503906"/><stop stop-opacity="1" stop-color="rgb(98.205566%, 81.999207%, 52.305603%)" offset="0.507812"/><stop stop-opacity="1" stop-color="rgb(98.182678%, 81.724548%, 52.282715%)" offset="0.511719"/><stop stop-opacity="1" stop-color="rgb(98.15979%, 81.451416%, 52.259827%)" offset="0.515625"/><stop stop-opacity="1" stop-color="rgb(98.135376%, 81.176758%, 52.235413%)" offset="0.519531"/><stop stop-opacity="1" stop-color="rgb(98.112488%, 80.903625%, 52.212524%)" offset="0.523438"/><stop stop-opacity="1" stop-color="rgb(98.0896%, 80.628967%, 52.189636%)" offset="0.527344"/><stop stop-opacity="1" stop-color="rgb(98.066711%, 80.355835%, 52.166748%)" offset="0.53125"/><stop stop-opacity="1" stop-color="rgb(98.043823%, 80.081177%, 52.14386%)" offset="0.535156"/><stop stop-opacity="1" stop-color="rgb(98.020935%, 79.808044%, 52.120972%)" offset="0.539063"/><stop stop-opacity="1" stop-color="rgb(97.998047%, 79.534912%, 52.098083%)" offset="0.542969"/><stop stop-opacity="1" stop-color="rgb(97.975159%, 79.26178%, 52.075195%)" offset="0.546875"/><stop stop-opacity="1" stop-color="rgb(97.952271%, 78.987122%, 52.052307%)" offset="0.550781"/><stop stop-opacity="1" stop-color="rgb(97.929382%, 78.713989%, 52.029419%)" offset="0.554688"/><stop stop-opacity="1" stop-color="rgb(97.904968%, 78.439331%, 52.005005%)" offset="0.558594"/><stop stop-opacity="1" stop-color="rgb(97.88208%, 78.166199%, 51.982117%)" offset="0.5625"/><stop stop-opacity="1" stop-color="rgb(97.859192%, 77.891541%, 51.959229%)" offset="0.566406"/><stop stop-opacity="1" stop-color="rgb(97.836304%, 77.618408%, 51.93634%)" offset="0.570312"/><stop stop-opacity="1" stop-color="rgb(97.813416%, 77.34375%, 51.913452%)" offset="0.574219"/><stop stop-opacity="1" stop-color="rgb(97.790527%, 77.070618%, 51.890564%)" offset="0.578125"/><stop stop-opacity="1" stop-color="rgb(97.767639%, 76.795959%, 51.867676%)" offset="0.582031"/><stop stop-opacity="1" stop-color="rgb(97.744751%, 76.522827%, 51.844788%)" offset="0.585938"/><stop stop-opacity="1" stop-color="rgb(97.720337%, 76.248169%, 51.820374%)" offset="0.589844"/><stop stop-opacity="1" stop-color="rgb(97.697449%, 75.975037%, 51.797485%)" offset="0.59375"/><stop stop-opacity="1" stop-color="rgb(97.674561%, 75.700378%, 51.774597%)" offset="0.597656"/><stop stop-opacity="1" stop-color="rgb(97.651672%, 75.427246%, 51.751709%)" offset="0.601562"/><stop stop-opacity="1" stop-color="rgb(97.628784%, 75.152588%, 51.728821%)" offset="0.605469"/><stop stop-opacity="1" stop-color="rgb(97.605896%, 74.879456%, 51.705933%)" offset="0.609375"/><stop stop-opacity="1" stop-color="rgb(97.583008%, 74.606323%, 51.683044%)" offset="0.613281"/><stop stop-opacity="1" stop-color="rgb(97.56012%, 74.333191%, 51.660156%)" offset="0.617188"/><stop stop-opacity="1" stop-color="rgb(97.535706%, 74.058533%, 51.635742%)" offset="0.621094"/><stop stop-opacity="1" stop-color="rgb(97.512817%, 73.7854%, 51.612854%)" offset="0.625"/><stop stop-opacity="1" stop-color="rgb(97.489929%, 73.510742%, 51.589966%)" offset="0.628906"/><stop stop-opacity="1" stop-color="rgb(97.467041%, 73.23761%, 51.567078%)" offset="0.632813"/><stop stop-opacity="1" stop-color="rgb(97.444153%, 72.962952%, 51.544189%)" offset="0.636719"/><stop stop-opacity="1" stop-color="rgb(97.421265%, 72.689819%, 51.521301%)" offset="0.640625"/><stop stop-opacity="1" stop-color="rgb(97.398376%, 72.415161%, 51.498413%)" offset="0.644531"/><stop stop-opacity="1" stop-color="rgb(97.375488%, 72.142029%, 51.475525%)" offset="0.648438"/><stop stop-opacity="1" stop-color="rgb(97.3526%, 71.867371%, 51.452637%)" offset="0.652344"/><stop stop-opacity="1" stop-color="rgb(97.329712%, 71.594238%, 51.429749%)" offset="0.65625"/><stop stop-opacity="1" stop-color="rgb(97.305298%, 71.31958%, 51.405334%)" offset="0.660156"/><stop stop-opacity="1" stop-color="rgb(97.28241%, 71.046448%, 51.382446%)" offset="0.664062"/><stop stop-opacity="1" stop-color="rgb(97.259521%, 70.77179%, 51.359558%)" offset="0.667969"/><stop stop-opacity="1" stop-color="rgb(97.236633%, 70.498657%, 51.33667%)" offset="0.671875"/><stop stop-opacity="1" stop-color="rgb(97.213745%, 70.223999%, 51.313782%)" offset="0.675781"/><stop stop-opacity="1" stop-color="rgb(97.190857%, 69.950867%, 51.290894%)" offset="0.679688"/><stop stop-opacity="1" stop-color="rgb(97.167969%, 69.677734%, 51.268005%)" offset="0.683594"/><stop stop-opacity="1" stop-color="rgb(97.145081%, 69.404602%, 51.245117%)" offset="0.6875"/><stop stop-opacity="1" stop-color="rgb(97.120667%, 69.129944%, 51.220703%)" offset="0.691406"/><stop stop-opacity="1" stop-color="rgb(97.097778%, 68.856812%, 51.197815%)" offset="0.695312"/><stop stop-opacity="1" stop-color="rgb(97.07489%, 68.582153%, 51.174927%)" offset="0.699219"/><stop stop-opacity="1" stop-color="rgb(97.052002%, 68.309021%, 51.152039%)" offset="0.703125"/><stop stop-opacity="1" stop-color="rgb(97.029114%, 68.034363%, 51.12915%)" offset="0.707031"/><stop stop-opacity="1" stop-color="rgb(97.006226%, 67.76123%, 51.106262%)" offset="0.710938"/><stop stop-opacity="1" stop-color="rgb(96.983337%, 67.486572%, 51.083374%)" offset="0.714844"/><stop stop-opacity="1" stop-color="rgb(96.960449%, 67.21344%, 51.060486%)" offset="0.71875"/><stop stop-opacity="1" stop-color="rgb(96.936035%, 66.938782%, 51.036072%)" offset="0.722656"/><stop stop-opacity="1" stop-color="rgb(96.913147%, 66.665649%, 51.013184%)" offset="0.726563"/><stop stop-opacity="1" stop-color="rgb(96.890259%, 66.390991%, 50.990295%)" offset="0.730469"/><stop stop-opacity="1" stop-color="rgb(96.867371%, 66.117859%, 50.967407%)" offset="0.734375"/><stop stop-opacity="1" stop-color="rgb(96.844482%, 65.843201%, 50.944519%)" offset="0.738281"/><stop stop-opacity="1" stop-color="rgb(96.821594%, 65.570068%, 50.921631%)" offset="0.742188"/><stop stop-opacity="1" stop-color="rgb(96.798706%, 65.296936%, 50.898743%)" offset="0.746094"/><stop stop-opacity="1" stop-color="rgb(96.775818%, 65.023804%, 50.875854%)" offset="0.75"/><stop stop-opacity="1" stop-color="rgb(96.75293%, 64.749146%, 50.85144%)" offset="0.753906"/><stop stop-opacity="1" stop-color="rgb(96.730042%, 64.476013%, 50.828552%)" offset="0.757812"/><stop stop-opacity="1" stop-color="rgb(96.705627%, 64.201355%, 50.805664%)" offset="0.761719"/><stop stop-opacity="1" stop-color="rgb(96.682739%, 63.928223%, 50.782776%)" offset="0.765625"/><stop stop-opacity="1" stop-color="rgb(96.659851%, 63.653564%, 50.759888%)" offset="0.769531"/><stop stop-opacity="1" stop-color="rgb(96.636963%, 63.380432%, 50.737%)" offset="0.773438"/><stop stop-opacity="1" stop-color="rgb(96.614075%, 63.105774%, 50.714111%)" offset="0.777344"/><stop stop-opacity="1" stop-color="rgb(96.591187%, 62.832642%, 50.691223%)" offset="0.78125"/><stop stop-opacity="1" stop-color="rgb(96.568298%, 62.557983%, 50.668335%)" offset="0.785156"/><stop stop-opacity="1" stop-color="rgb(96.54541%, 62.284851%, 50.645447%)" offset="0.789062"/><stop stop-opacity="1" stop-color="rgb(96.520996%, 62.010193%, 50.621033%)" offset="0.792969"/><stop stop-opacity="1" stop-color="rgb(96.498108%, 61.737061%, 50.598145%)" offset="0.796875"/><stop stop-opacity="1" stop-color="rgb(96.47522%, 61.462402%, 50.575256%)" offset="0.800781"/><stop stop-opacity="1" stop-color="rgb(96.452332%, 61.18927%, 50.552368%)" offset="0.804688"/><stop stop-opacity="1" stop-color="rgb(96.429443%, 60.914612%, 50.52948%)" offset="0.808594"/><stop stop-opacity="1" stop-color="rgb(96.406555%, 60.641479%, 50.506592%)" offset="0.8125"/><stop stop-opacity="1" stop-color="rgb(96.383667%, 60.368347%, 50.483704%)" offset="0.816406"/><stop stop-opacity="1" stop-color="rgb(96.360779%, 60.095215%, 50.460815%)" offset="0.820312"/><stop stop-opacity="1" stop-color="rgb(96.336365%, 59.820557%, 50.436401%)" offset="0.824219"/><stop stop-opacity="1" stop-color="rgb(96.313477%, 59.547424%, 50.413513%)" offset="0.828125"/><stop stop-opacity="1" stop-color="rgb(96.290588%, 59.272766%, 50.390625%)" offset="0.832031"/><stop stop-opacity="1" stop-color="rgb(96.2677%, 58.999634%, 50.367737%)" offset="0.835938"/><stop stop-opacity="1" stop-color="rgb(96.244812%, 58.724976%, 50.344849%)" offset="0.839844"/><stop stop-opacity="1" stop-color="rgb(96.221924%, 58.451843%, 50.32196%)" offset="0.84375"/><stop stop-opacity="1" stop-color="rgb(96.199036%, 58.177185%, 50.299072%)" offset="0.847656"/><stop stop-opacity="1" stop-color="rgb(96.176147%, 57.904053%, 50.276184%)" offset="0.851562"/><stop stop-opacity="1" stop-color="rgb(96.151733%, 57.629395%, 50.25177%)" offset="0.855469"/><stop stop-opacity="1" stop-color="rgb(96.128845%, 57.356262%, 50.228882%)" offset="0.859375"/><stop stop-opacity="1" stop-color="rgb(96.105957%, 57.081604%, 50.205994%)" offset="0.863281"/><stop stop-opacity="1" stop-color="rgb(96.083069%, 56.808472%, 50.183105%)" offset="0.867188"/><stop stop-opacity="1" stop-color="rgb(96.060181%, 56.533813%, 50.160217%)" offset="0.871094"/><stop stop-opacity="1" stop-color="rgb(96.037292%, 56.260681%, 50.137329%)" offset="0.875"/><stop stop-opacity="1" stop-color="rgb(96.014404%, 55.986023%, 50.114441%)" offset="0.878906"/><stop stop-opacity="1" stop-color="rgb(95.991516%, 55.712891%, 50.091553%)" offset="0.882812"/><stop stop-opacity="1" stop-color="rgb(95.968628%, 55.439758%, 50.068665%)" offset="0.886719"/><stop stop-opacity="1" stop-color="rgb(95.94574%, 55.166626%, 50.045776%)" offset="0.890625"/><stop stop-opacity="1" stop-color="rgb(95.921326%, 54.891968%, 50.021362%)" offset="0.894531"/><stop stop-opacity="1" stop-color="rgb(95.898438%, 54.618835%, 49.998474%)" offset="0.898438"/><stop stop-opacity="1" stop-color="rgb(95.875549%, 54.344177%, 49.975586%)" offset="0.902344"/><stop stop-opacity="1" stop-color="rgb(95.852661%, 54.071045%, 49.952698%)" offset="0.90625"/><stop stop-opacity="1" stop-color="rgb(95.829773%, 53.796387%, 49.92981%)" offset="0.910156"/><stop stop-opacity="1" stop-color="rgb(95.806885%, 53.523254%, 49.906921%)" offset="0.914062"/><stop stop-opacity="1" stop-color="rgb(95.783997%, 53.248596%, 49.884033%)" offset="0.917969"/><stop stop-opacity="1" stop-color="rgb(95.761108%, 52.975464%, 49.861145%)" offset="0.921875"/><stop stop-opacity="1" stop-color="rgb(95.736694%, 52.700806%, 49.836731%)" offset="0.925781"/><stop stop-opacity="1" stop-color="rgb(95.713806%, 52.427673%, 49.813843%)" offset="0.929688"/><stop stop-opacity="1" stop-color="rgb(95.690918%, 52.153015%, 49.790955%)" offset="0.933594"/><stop stop-opacity="1" stop-color="rgb(95.66803%, 51.879883%, 49.768066%)" offset="0.9375"/><stop stop-opacity="1" stop-color="rgb(95.645142%, 51.605225%, 49.745178%)" offset="0.941406"/><stop stop-opacity="1" stop-color="rgb(95.622253%, 51.332092%, 49.72229%)" offset="0.945312"/><stop stop-opacity="1" stop-color="rgb(95.599365%, 51.057434%, 49.699402%)" offset="0.949219"/><stop stop-opacity="1" stop-color="rgb(95.576477%, 50.784302%, 49.676514%)" offset="0.953125"/><stop stop-opacity="1" stop-color="rgb(95.552063%, 50.511169%, 49.6521%)" offset="0.957031"/><stop stop-opacity="1" stop-color="rgb(95.529175%, 50.238037%, 49.629211%)" offset="0.960938"/><stop stop-opacity="1" stop-color="rgb(95.506287%, 49.963379%, 49.606323%)" offset="0.964844"/><stop stop-opacity="1" stop-color="rgb(95.483398%, 49.690247%, 49.583435%)" offset="0.96875"/><stop stop-opacity="1" stop-color="rgb(95.46051%, 49.415588%, 49.560547%)" offset="0.972656"/><stop stop-opacity="1" stop-color="rgb(95.437622%, 49.142456%, 49.537659%)" offset="0.976562"/><stop stop-opacity="1" stop-color="rgb(95.414734%, 48.867798%, 49.514771%)" offset="0.980469"/><stop stop-opacity="1" stop-color="rgb(95.391846%, 48.594666%, 49.491882%)" offset="0.984375"/><stop stop-opacity="1" stop-color="rgb(95.368958%, 48.320007%, 49.468994%)" offset="0.988281"/><stop stop-opacity="1" stop-color="rgb(95.346069%, 48.046875%, 49.446106%)" offset="0.992188"/><stop stop-opacity="1" stop-color="rgb(95.321655%, 47.772217%, 49.421692%)" offset="0.996094"/><stop stop-opacity="1" stop-color="rgb(95.298767%, 47.499084%, 49.398804%)" offset="1"/></linearGradient></defs><rect x="-37.5" width="450" fill="#ffffff" y="-37.499999" height="449.999989" fill-opacity="1"/><rect x="-37.5" width="450" fill="#1e1c1c" y="-37.499999" height="449.999989" fill-opacity="1"/><g clip-path="url(#5b78a5457c)"><g clip-path="url(#e2eb48db73)"><path fill="url(#1432a811c7)" d="M 69.574219 69.871094 L 69.574219 294.871094 L 305.792969 294.871094 L 305.792969 69.871094 Z M 69.574219 69.871094 " fill-rule="nonzero"/></g></g></svg>